<svg xmlns="http://www.w3.org/2000/svg" width="24" height="22" viewBox="0 0 24 22">
<defs>
    <style>
        .cls-1 {
        fill: rgb(0, 0, 0);
        fill-rule: evenodd;
        }
    </style>
</defs>
<path id="Vector" class="cls-1" d="M11.999,22.000 C3.060,16.484 -0.001,11.071 -0.001,7.003 C-0.001,-1.004 9.661,-1.996 11.999,3.266 C14.351,-2.025 23.999,-0.959 23.999,7.003 C23.999,11.071 20.939,16.484 11.999,22.000 ZM17.382,2.000 C13.547,2.000 12.234,7.109 11.999,8.229 C11.721,7.124 10.499,1.998 6.577,1.998 C4.369,1.998 2.000,3.519 2.000,7.003 C2.000,10.910 5.627,15.473 11.999,19.632 C18.373,15.473 21.999,10.910 21.999,7.003 C21.999,3.551 19.601,2.000 17.382,2.000 Z"/>
</svg>
